<?xml version="1.0" encoding="UTF-8"?>
<svg id="Layer_1" data-name="Layer 1" xmlns="http://www.w3.org/2000/svg" viewBox="0 0 450.07 168.72">
  <path d="M73.6,63.12c-3.95,1.33-8.24,1.18-12.08-.42l-.16-.06c-3.65-1.05-6.62-3.79-7.96-7.35l-.05-.12c-.46-.98-1.03-1.91-1.68-2.78-.56-.73-1.55-1.01-2.4-.67l-7.48,2.94-.07.07c-.4.25-.7.63-.86,1.08-.62,1.83-.52,3.8.26,5.53,1.95,4.48,5.17,8.22,9.28,10.81,3.65,2.39,7.69,3.95,11.92,4.63,2.07.44,4.17.66,6.26.66,5.85,0,11.66-1.69,16.58-4.92,6.02-3.82,9.66-10.36,9.74-17.41.47-6.77-2.7-13.38-8.21-17.19-5.1-3.97-11.47-5.93-17.93-5.52-2.75.2-5.51-.02-8.19-.66l-.1-.02c-1.95-.32-3.63-1.49-4.62-3.2-.99-1.71-1.16-3.76-.47-5.62l.05-.16c.37-1.52,1.38-2.81,2.76-3.53,1.92-.99,3.98-1.6,6.13-1.83l.17-.03c3.06-.67,6.25-.22,9.09,1.31,2.34,1.09,4.13,3.12,4.9,5.57,1.42,4.69,2.8,5.46,7.79,4.36,1.11-.27,2.23-.63,3.32-1.06.83-.27,1.53-.85,1.95-1.62.4-.75.51-1.63.31-2.45-.71-5.54-3.7-10.59-8.18-13.81-1.57-1.24-3.3-2.29-5.19-3.15-4.78-1.91-10.01-2.68-15.11-2.23-5.43.36-10.62,2.26-14.94,5.47-4.02,2.7-6.78,6.99-7.57,11.72-1.32,6.36.91,12.95,5.79,17.2,4.92,4.35,11.25,6.75,17.81,6.75h.01c2.4.01,4.87.17,7.25.32l.65.04c3.8.36,6.87,3.11,7.63,6.79.7,4.62-1.99,9.06-6.39,10.56Z"/>
  <path d="M106.8,19.59c4.16.05,13.83.05,17.95.05,2.27,0,2.95.16,3.11.27.14.24.12,1.3.11,2.16,0,.35,0,.73,0,1.14.02,9-.01,18.28-.04,27.43l-.03,11.19c0,1.23,0,2.47-.01,3.7-.01,2.44-.03,4.96.01,7.45.02,1.09.15,2.21.98,2.97.64.58,1.46.72,2.26.72.28,0,.56-.02.83-.04,1.81-.14,3.61-.23,5.28-.3.61-.02,1.23-.01,1.92,0h.44s0,0,.01,0c1.24,0,2.27-.92,2.4-2.15.37-3.53.26-7.09.16-10.54-.08-2.78-.16-5.4,0-7.96.27-4.38.21-8.83.15-13.14-.02-1.83-.05-3.66-.05-5.49v-17.48l13.95.02c.49,0,1.02,0,1.56,0,1.46.01,3.11.02,4.47-.06,2.42-.16,3.51-1.27,3.63-3.7.06-1,.06-1.78.07-2.6,0-.5,0-1.02.02-1.62.06-2.29.02-4.13-1.14-5.33-1.23-1.27-3.2-1.27-5.93-1.27h-31.74c-4.59.02-15.33.05-20.32.17-3.34.08-4.6,1.35-4.67,4.67-.03,1.01-.03,1.85-.04,2.7,0,.67,0,1.36-.02,2.14-.04,1.61,0,2.91.9,3.84.9.93,2.24,1.02,3.78,1.04Z"/>
  <path d="M229.86,46.79c-.04-1.76-.08-3.52-.08-5.27.04-6.26.11-12.51.18-18.76.04-3.95.09-7.9.12-11.86,0-.84-.04-1.71-.1-2.63l-.02-.39c-.08-1.33-1.17-2.39-2.48-2.4-.92-.01-1.84-.11-2.81-.22-2.32-.26-4.71-.52-7.35.45h0c-.97.36-1.62,1.32-1.62,2.38v4.48c0,4.06,0,8.08,0,12.1,0,2.88,0,5.75-.02,8.63-.02,5.67-.04,11.53.02,17.3.04,4.55-2.74,8.72-7.01,10.4-3.53,1.61-7.59,1.64-11.14.08l-.1-.04c-1.51-.53-2.82-1.5-3.81-2.83-2.03-2.56-3.14-5.77-3.13-9.1-.19-6.96-.09-14.15,0-20.49.05-3.35.17-6.77.28-10.07.09-2.57.17-5.13.23-7.73v-.13c-.03-1-.11-2.01-.23-2.99-.15-1.25-1.22-2.21-2.5-2.23-.93-.02-1.88-.13-2.8-.23-2.33-.27-4.74-.55-7.23.53-.8.35-1.37,1.11-1.48,1.99-.04.32-.07.64-.09,1.05,0,3.8,0,7.6,0,11.4,0,8.62.02,17.54-.06,26.27-.13,4.61.34,9.22,1.41,13.75,1.79,6.67,6.64,12.22,12.96,14.86,1.51.75,3.12,1.28,4.79,1.58,1.81.3,3.64.44,5.41.56.57.04,1.14.08,1.66.12.69.08,1.37.11,2.06.11,2.59,0,5.17-.53,7.54-1.57,3.15-1.32,6.18-2.96,9.02-4.88,5.38-3.7,8.53-9.83,8.42-16.34.07-2.63,0-5.29-.05-7.86Z"/>
  <path d="M247.49,40.47v31.36c.02,3.48,1.15,4.6,4.66,4.6,4.35.04,8.76.04,13.11,0,2.08-.02,4.21.06,6.28.15,1.88.08,3.8.15,5.73.15,1.48,0,2.96-.05,4.45-.17,6.31,0,12.21-3.09,15.83-8.3,2.5-3.74,4.22-7.88,5.14-12.36.3-1.94.48-3.91.56-5.82.07-1.08.16-2.16.24-3.25.23-2.82.46-5.73.38-8.6-.06-7.81-1.93-15.64-5.4-22.64-1.93-4.25-5.34-7.64-9.6-9.55l-.14-.05c-2.54-.84-5.17-1.16-7.83-.94-7.2,0-14.4.03-21.6.06l-6.27.03c-.21,0-.43,0-.64-.01-.45-.01-.91-.02-1.4,0-.99-.04-1.91.36-2.59,1.07-.67.71-1.02,1.66-.95,2.63-.02,1.09-.07,2.19-.11,3.29-.07,1.76-.15,3.58-.12,5.39h0s0,0,0,0c0,0,0,.01,0,.02.11,7.62.27,22.95.27,22.95ZM261.92,44.04c-.03-2.41-.13-4.84-.22-7.2-.1-2.49-.2-5.07-.23-7.6-.02-2.26.09-4.51.2-6.89.03-.72.07-1.44.1-2.16,0,0,0,0,0,0,7.23.02,14.45.04,21.62.07,1.06.04,1.98.79,2.22,1.82l.05.18c.55,1.49.96,3.03,1.24,4.67.98,4.3,1.69,8.69,2.11,13.05.43,5.33-.23,10.6-1.94,15.67l-.04.13c-.76,3.19-3.58,5.49-6.86,5.61-6.72.23-11.89.35-16.75.38-1.19,0-1.56-.25-1.69-1.66-.03-.95,0-1.91.07-2.95.01-1.31.04-2.63.06-3.94.05-3,.1-6.11.06-9.18Z"/>
  <path d="M318.96,60.78c0,4.12.04,8.2.09,12.36-.05.85.24,1.69.81,2.31.57.64,1.39,1.02,2.24,1.05,1.18.1,2.36.15,3.54.15,1.65,0,3.3-.1,4.93-.3,1.15-.14,2.03-1.13,2.04-2.29.13-11.78.28-23.46.42-35.11.12-9.94.25-19.85.36-29.77v-.02c0-.14,0-.15-.28-1.95-.22-1-1.09-1.75-2.13-1.81l-.41-.03c-.68-.04-1.34-.09-2.01-.12-.58-.02-1.16-.04-1.75-.05-1.12-.03-2.17-.05-3.2-.15-1.48-.15-2.68-.19-3.59.63-.92.83-.99,2.08-.99,3.51-.03,5.05-.05,10.11-.05,15.18,0,3.97.02,7.94.03,11.91.02,4.69.04,9.37.04,14.06,0,1.74-.03,3.47-.06,5.21-.03,1.75-.06,3.5-.06,5.25Z"/>
  <path d="M356.41,68.27c1.84,1.68,3.81,3.24,5.83,4.62,1.46,1.06,3.04,1.91,4.72,2.54l.1.03c4.08,1.22,8.31,1.87,12.47,1.94.38.03.77.05,1.15.05,2.09,0,4.18-.45,6.09-1.33,3.32-1.22,6.47-2.87,9.38-4.9,2.7-1.89,5.02-4.39,6.73-7.32,3.06-5.98,4.82-12.69,5.07-19.41.04-1.38-.01-2.75-.07-4.07-.06-1.43-.11-2.78-.05-4.13.28-4.25-.58-8.5-2.47-12.26-2.37-5.08-5.91-9.66-10.19-13.21-5.17-4.48-11.76-6.76-18.58-6.45-1.29-.13-2.58-.2-3.85-.19-1.39-.03-2.77.2-4.15.71-2.25.93-4.42,2.08-6.46,3.42-3.88,2.58-7.15,6.1-9.44,10.18l-.05.1c-6.06,12.89-6.78,27.38-2.03,40.8,1.17,3.39,3.18,6.47,5.82,8.91ZM365,26.61c2.82-4.58,7.86-7.39,13.21-7.39.12,0,.24,0,.36,0h.13s.07,0,.07,0c3.75.6,7.28,2.19,10.23,4.58.75.81,1.35,1.73,1.77,2.76l.13.25c1.1,1.67,1.9,3.51,2.37,5.46.17,2.15.48,4.29.79,6.36.13.88.26,1.75.38,2.63-.26,3.96-.93,7.92-1.97,11.75-.41,1.5-1.35,2.8-2.59,3.64-1.3.82-2.53,1.77-3.63,2.81-1.79,1.61-4.2,2.45-6.6,2.29h-.1s-.1,0-.1,0c-5.58.38-10.8-2.64-13.29-7.71-1.92-3.71-3.25-7.68-3.97-11.85-1.11-5.38-.12-10.9,2.81-15.56Z"/>
  <path d="M86.81,122.14c-5.12-4.29-11.51-6.42-18.01-5.97-2.74.22-5.49-.02-8.16-.71l-.11-.02c-1.94-.35-3.63-1.61-4.62-3.48-1.02-1.9-1.2-4.18-.48-6.24l.04-.16c.38-1.68,1.41-3.1,2.8-3.89,1.92-1.06,3.97-1.72,6.11-1.96l.18-.03c3.04-.72,6.22-.24,9.04,1.4,2.35,1.18,4.16,3.4,4.94,6.08,1.41,5.02,2.79,5.85,7.83,4.65,1.12-.3,2.24-.69,3.34-1.15.83-.29,1.53-.91,1.94-1.72.39-.77.49-1.66.29-2.51-.7-5.94-3.69-11.36-8.15-14.83-1.58-1.34-3.31-2.48-5.2-3.4-4.8-2.06-10.06-2.9-15.17-2.41-5.46.39-10.66,2.45-14.99,5.92-4,2.9-6.75,7.5-7.54,12.57-1.31,6.79.91,13.84,5.76,18.39,4.94,4.71,11.29,7.3,17.88,7.3h.01c2.41.01,4.89.18,7.28.35l.61.04c3.8.39,6.88,3.39,7.65,7.41.72,5.07-1.99,9.93-6.43,11.56-3.93,1.43-8.2,1.26-12.02-.46l-.17-.06c-3.65-1.13-6.64-4.11-7.99-7.98l-.04-.11c-.46-1.04-1.02-2.04-1.68-2.99-.56-.79-1.58-1.08-2.47-.71l-7.2,3.05h0c-.57.24-1.01.72-1.19,1.31-.6,1.92-.51,3.99.26,5.82,1.94,4.81,5.15,8.84,9.26,11.63,3.67,2.58,7.72,4.27,11.96,5,2.08.48,4.19.72,6.3.72,5.87,0,11.71-1.83,16.64-5.32,6-4.1,9.63-11.12,9.71-18.68.47-7.25-2.69-14.32-8.17-18.41Z"/>
  <path d="M163.9,152.49c-.69-1.71-1.44-3.4-2.18-5.03-.65-1.45-1.33-2.96-1.94-4.46-.85-2.07-1.65-4.21-2.43-6.29-.43-1.16-.87-2.31-1.31-3.46-2.42-6.31-4.86-12.61-7.31-18.89-.22-.57-.48-1.13-.74-1.69-.24-.52-.48-1.04-.69-1.58-.42-1.1-.83-2.21-1.23-3.31-.58-1.58-1.17-3.22-1.82-4.81-1.77-4.4-3.55-8.65-5.52-13.32-.63-1.65-2.16-2.69-3.88-2.6h-2.71c-2.99-.2-5,.93-6.51,3.66-.36.64-.81,1.69-1.07,2.39-.45,1.22-.9,2.44-1.35,3.66-.99,2.69-2.02,5.48-3.08,8.17-.63,1.6-1.28,3.19-1.93,4.77-1.24,3.03-2.53,6.16-3.65,9.34-2.16,6.1-4.62,12.21-6.99,18.12-.9,2.25-1.81,4.5-2.7,6.76l-.04.12c-.73,2.3-1.66,4.54-2.75,6.62-1.18,2.09-2.07,4.35-2.61,6.65-.58,1.99-.77,3.46.07,4.62.91,1.26,2.63,1.44,4.16,1.5.35.02.7.03,1.06.04.77.02,1.5.04,2.2.13,3.81.46,5-.3,6.33-4.01.87-2.39,1.76-4.78,2.66-7.16.49-1.3.98-2.61,1.46-3.91.23-.61.45-1.23.67-1.84.38-1.06.78-2.15,1.23-3.27.13-.38.46-.62.78-.57h.11c1.74.12,3.51.18,5.22.24,1.51.05,3.02.11,4.52.19,1.47.08,3.21.16,4.99.08,3.16-.13,5.98-.32,8.62-.58l.16-.02c.51-.11,1.04,0,1.49.3.52.35.9.93,1.02,1.6l.04.15c.23.77.46,1.48.71,2.16,1.35,3.74,3.13,8.65,4.94,13.5.27.8.72,1.53,1.29,2.07.71.73,1.64,1.2,2.63,1.34l.12.02h.12c2.21-.07,4.48-.25,6.75-.54,1.05-.02,2.03-.56,2.64-1.46.59-.87.75-1.99.44-3.01-.51-2.18-1.17-4.32-1.98-6.38ZM139.09,126.15c-4.39.77-8.83.84-13.23.21l.28-.78c.63-1.76,1.25-3.51,1.91-5.25.86-2.24,1.74-4.47,2.63-6.69.44-1.12.89-2.23,1.33-3.35.06-.16.12-.33.17-.5.04-.14.08-.28.15-.42.03-.07.06-.12.09-.17,0,.01.01.02.02.04.81,1.51,1.54,3.11,2.17,4.73,1.34,3.53,2.66,7.16,3.93,10.66l.56,1.53Z"/>
  <path d="M216.2,86.6h-31.78c-3.75.01-15.18.05-20.35.18-3.81.1-4.62,1.96-4.68,4.93-.03,1.08-.03,1.99-.04,2.91,0,.73,0,1.47-.02,2.32-.04,1.73,0,3.13.93,4.09.9.94,2.23,1.03,3.75,1.05,4.16.05,13.84.05,17.98.05,2.38,0,2.96.2,3.08.3.17.24.15,1.46.14,2.44,0,.38,0,.79,0,1.23.02,9.85-.01,20.01-.04,30.03l-.03,11.67c0,1.33,0,2.66-.01,3.99-.01,2.63-.03,5.35.01,8.04.02,1.18.15,2.37,1.01,3.15.64.58,1.44.72,2.22.72.29,0,.58-.02.85-.04,1.79-.15,3.6-.24,5.28-.32.62-.02,1.24-.01,1.93,0h.43s0,0,.01,0c1.25,0,2.28-.95,2.4-2.22.37-3.8.26-7.64.16-11.35-.08-3.01-.16-5.85,0-8.62.27-4.72.21-9.53.15-14.17-.02-1.98-.05-3.96-.05-5.93v-18.99l13.97.02c.48,0,1,0,1.54,0,1.47.01,3.13.02,4.5-.07,2.45-.18,3.5-1.31,3.63-3.89.06-1.06.06-1.9.07-2.79,0-.54,0-1.1.02-1.75.08-2.9-.09-4.58-1.19-5.71-1.25-1.28-3.19-1.28-5.89-1.28Z"/>
  <path d="M285.85,92.68c.04-.07.08-.15.13-.24.2-.42.38-.84.53-1.25.35-.94.17-2.01-.45-2.78-1.17-1.44-1.7-1.81-3.4-1.85-2.17-.06-4.16-.06-6.09,0-2.03-.07-3.95,1.05-5,2.9-.75,1.3-1.55,2.6-2.32,3.87-.46.75-.92,1.5-1.38,2.26l-.73,1.21c-1.42,2.36-2.84,4.72-4.24,7.06-.26.44-.54.86-.82,1.29-.5.76-1.02,1.55-1.48,2.45-.83,1.72-1.8,3.38-2.88,4.94-.94-1.47-1.78-2.99-2.66-4.59-1.16-2.11-2.37-4.29-3.83-6.36-1.94-2.74-3.67-5.79-5.33-8.74-.65-1.15-1.3-2.3-1.94-3.4-.97-1.75-2.77-2.84-4.65-2.84h0c-1.52-.04-3.06-.03-4.54-.01-.74,0-1.49.01-2.19.01-1.6-.06-3.03.93-3.64,2.48-.3.76-.24,1.62.17,2.36l.95,1.72c1.19,2.18,2.43,4.43,3.74,6.64,1.89,3.22,3.86,6.45,5.77,9.56l1.67,2.73c2.43,3.98,4.95,8.1,7.48,12.13l.06.09c1.39,1.91,2.17,4.21,2.25,6.57-.09,8.88-.09,17.91-.09,26.63,0,1.08.05,2.15.11,3.28v.23c.07,1.42,1.15,2.55,2.51,2.63.91.05,1.83.08,2.75.08,1.27,0,2.53-.05,3.79-.15l-.02.06,2.25-.28c1.23-.16,2.19-1.17,2.32-2.46v-.12c.08-.65.13-1.17.14-1.72l.02-1.28c.15-9.14.31-18.6.41-27.95-.04-2.01.57-3.98,1.74-5.57.52-.73,1-1.49,1.4-2.23,1-1.7,1.99-3.41,2.98-5.11,1.83-3.14,3.66-6.28,5.52-9.4,1.64-2.74,3.31-5.47,4.98-8.2,1.35-2.21,2.7-4.41,4.04-6.63Z"/>
  <path d="M345.19,152.49c-.69-1.71-1.44-3.4-2.18-5.03-.65-1.45-1.33-2.96-1.94-4.46-.85-2.07-1.65-4.21-2.43-6.29-.43-1.16-.87-2.31-1.31-3.46-2.42-6.31-4.86-12.61-7.31-18.89-.22-.57-.48-1.13-.74-1.69-.24-.52-.48-1.04-.69-1.58-.42-1.1-.83-2.2-1.23-3.31-.58-1.58-1.17-3.22-1.82-4.81-1.77-4.4-3.55-8.65-5.52-13.32-.63-1.65-2.17-2.69-3.88-2.6h-2.71c-2.98-.2-5,.93-6.51,3.66-.4.71-.86,1.82-1.07,2.39-.46,1.22-.9,2.44-1.35,3.66-.99,2.69-2.02,5.47-3.08,8.17-.63,1.6-1.28,3.19-1.94,4.78-1.24,3.03-2.52,6.16-3.65,9.33-2.17,6.1-4.62,12.22-6.99,18.13-.9,2.25-1.8,4.49-2.69,6.75l-.04.12c-.73,2.3-1.66,4.54-2.75,6.62-1.18,2.09-2.07,4.35-2.61,6.65-.58,1.99-.76,3.46.07,4.62.91,1.26,2.63,1.44,4.16,1.5.35.02.7.03,1.05.04.77.02,1.5.04,2.2.13,3.82.46,5-.3,6.33-4.01.87-2.4,1.77-4.79,2.67-7.18.49-1.3.98-2.6,1.46-3.89.23-.62.46-1.23.68-1.85.38-1.05.78-2.15,1.23-3.26.13-.38.45-.62.78-.57h.11c1.74.12,3.51.18,5.22.24,1.51.05,3.02.11,4.52.19,1.47.08,3.21.16,4.99.08,3.16-.13,5.98-.32,8.62-.58l.16-.02c.51-.1,1.04,0,1.49.3.52.35.9.93,1.02,1.6l.04.14c.22.76.46,1.47.71,2.16,1.35,3.74,3.13,8.65,4.94,13.5.27.8.72,1.53,1.29,2.07.71.73,1.64,1.2,2.63,1.34l.12.02h.12c2.21-.07,4.48-.25,6.75-.54,1.05-.02,2.03-.56,2.64-1.46.59-.87.75-1.99.44-3.01-.51-2.18-1.17-4.32-1.98-6.38ZM320.39,126.15c-4.39.77-8.83.84-13.23.21l.29-.8c.62-1.75,1.25-3.5,1.9-5.22.86-2.24,1.74-4.47,2.63-6.69.44-1.12.89-2.23,1.33-3.35.06-.16.12-.33.17-.51.04-.14.08-.28.15-.42.03-.07.06-.12.09-.18,0,.01.01.02.02.03.81,1.52,1.54,3.11,2.17,4.73,1.34,3.53,2.66,7.16,3.93,10.66l.56,1.53Z"/>
  <path d="M409.1,89.01c-.1-1.08-.94-1.9-1.99-1.96l-1.82-.1c-1.73-.09-3.52-.18-5.27-.33-1.1-.09-2.35-.13-3.25.7-.92.85-1,2.16-1,3.31v17.81c0,3.66.01,7.33.02,10.99.01,4.91.02,9.82.03,14.68-3.26-5.63-6.53-11.38-9.7-16.94l-3.1-5.44c-1.24-2.17-2.49-4.33-3.74-6.5-2.72-4.71-5.53-9.57-8.2-14.42-1.17-2.55-3.63-4.08-6.23-3.89-1.6.03-3.22-.04-4.84-.22-1.26-.14-2.7-.29-3.69.59-.93.83-1,2.13-1,3.61-.04,5.46-.06,10.91-.06,16.37,0,3.85.03,7.7.05,11.55.03,5.13.06,10.25.06,15.38,0,2.05-.02,4.1-.05,6.15-.03,1.95-.05,3.9-.05,5.85,0,2.52,0,5.04.02,7.56.01,2.04.02,4.08.02,6.12-.08.94.23,1.88.83,2.57.63.73,1.52,1.16,2.47,1.12.98.09,1.96.13,2.94.13,1.95,0,3.91-.17,5.83-.52,1.02-.18,1.75-1.09,1.75-2.14v-44.46c5.59,9.85,11.17,19.7,16.75,29.56,2.56,4.51,5.1,9.04,7.63,13.58.89,2.19,2.82,3.7,5.06,3.94h.13c1.92.04,3.88.03,5.78.02.84,0,1.68,0,2.53-.01,1.09,0,2-.84,2.11-1.95h0c.65-6.91.63-65.36-.03-72.73Z"/>
</svg>