<svg xmlns="http://www.w3.org/2000/svg" viewBox="0 0 512 512" id="colorwheel">
  <defs>
    <linearGradient id="a" x1="258.2" x2="258.2" y1="674.425" y2="326.814" gradientUnits="userSpaceOnUse">
      <stop offset="0"></stop>
      <stop offset="1" stop-opacity="0"></stop>
    </linearGradient>
  </defs>
  <path fill="#ef4136" d="M364.575,159.457,285.361,238.6A37.982,37.982,0,0,0,258.2,227.159v-111.9A149.625,149.625,0,0,1,364.575,159.457Z"></path>
  <path fill="#ee2a7b" d="M258.2,115.255v111.9A37.885,37.885,0,0,0,231.039,238.6l-79.214-79.145A149.576,149.576,0,0,1,258.2,115.255Z"></path>
  <path fill="#92278f" d="M220.2,265.123a4.522,4.522,0,0,0,.028.615H108.2v-.615a149.333,149.333,0,0,1,43.625-105.666L231.039,238.6A37.842,37.842,0,0,0,220.2,265.123Z"></path>
  <path fill="#27aae1" d="M231.655,292.231l-79.214,79.144A149.218,149.218,0,0,1,108.2,265.738H220.231A37.522,37.522,0,0,0,231.655,292.231Z"></path>
  <path fill="#009444" d="M258.2,303.086v111.9a149.574,149.574,0,0,1-105.759-43.615l79.214-79.144A37.764,37.764,0,0,0,258.2,303.086Z"></path>
  <path fill="#8dc63f" d="M363.959,371.375A149.673,149.673,0,0,1,258.2,414.99v-111.9a37.812,37.812,0,0,0,26.545-10.855Z"></path>
  <path fill="#f9ed32" d="M408.2,265.738a149.218,149.218,0,0,1-44.241,105.637l-79.214-79.144a37.638,37.638,0,0,0,11.424-26.493Z"></path>
  <path fill="#f7941d" d="M408.2,265.123v.615H296.169a4.522,4.522,0,0,0,.028-.615A37.842,37.842,0,0,0,285.361,238.6l79.214-79.145A149.45,149.45,0,0,1,408.2,265.123Z"></path>
  <path fill="#f1f2f2" d="M357.8 265.738a99.108 99.108 0 01-29.513 70.024l-43.541-43.531a37.638 37.638 0 0011.424-26.493zM258.2 303.086v61.547a99.4 99.4 0 01-70.086-28.871l43.541-43.531A37.764 37.764 0 00258.2 303.086zM220.2 265.123a4.522 4.522 0 00.028.615H158.6v-.615A99.221 99.221 0 01187.5 195.1l43.541 43.5A37.842 37.842 0 00220.2 265.123zM328.9 195.1l-43.541 43.5A37.982 37.982 0 00258.2 227.159V165.612A99.416 99.416 0 01328.9 195.1z" opacity=".2"></path>
  <path fill="#f1f2f2" d="M357.8 265.123v.615h-61.63a4.522 4.522 0 00.028-.615A37.842 37.842 0 00285.361 238.6L328.9 195.1A99.221 99.221 0 01357.8 265.123zM231.655 292.231l-43.541 43.531A99.116 99.116 0 01158.6 265.738h61.63A37.522 37.522 0 00231.655 292.231zM258.2 165.612v61.547A37.885 37.885 0 00231.039 238.6L187.5 195.1A99.369 99.369 0 01258.2 165.612zM328.286 335.762A99.447 99.447 0 01258.2 364.633V303.086a37.812 37.812 0 0026.545-10.855z" opacity=".2"></path>
  <ellipse cx="258.2" cy="264.857" fill="url(#a)" rx="150" ry="149.867"></ellipse>
</svg>
