<svg xmlns="http://www.w3.org/2000/svg" id="draw" width="500mm" height="500mm" version="1.1" viewBox="0 0 500 500">
  <g id="layer1" transform="translate(1000 -5000)">
    <path id="path1-92-5-1" d="m -658.46083,5055.8522 c -3.8179,0.6743 -8.3953,3.2825 -13.5003,9.5463 -4.7628,5.8439 -23.6068,26.0929 -42.9515,45.1301 -19.3443,19.0375 -38.9148,43.4377 -46.7589,52.8345 -11.5148,13.7932 -56.4309,65.6464 -84.9657,98.086 -8.9279,10.1485 -14.0788,30.9637 -14.8022,42.2843 -0.3621,5.6786 -1.2485,14.0617 -5.5248,39.2 -4.2767,25.1383 -8.7113,40.6733 -9.2972,41.9687 -0.5862,1.2958 -4.8568,16.7575 -2.4695,20.5718 4.808,7.6809 6.4666,11.9877 33.1144,3.014 13.2204,-4.4518 24.4255,-11.3093 34.033,-14.41 9.6074,-3.1007 26.0506,-9.3252 34.3413,-13.2072 14.9512,-7.0012 24.9206,-2.3063 40.2169,-18.4913 37.0791,-39.2333 56.6026,-61.2843 65.088,-73.5116 5.3629,-7.7275 24.5584,-29.3677 46.7465,-52.7013 64.0967,-67.4065 73.3817,-76.1936 68.1072,-86.2573 -5.2746,-10.0635 -7.7671,-10.249 -22.3216,-23.4778 -8.5518,-7.7728 -22.1945,-19.2889 -30.3176,-25.5902 -8.1241,-6.2997 -17.5436,-18.2018 -23.8011,-26.0934 -6.2574,-7.8919 -16.2983,-17.4298 -18.9331,-18.3887 -1.6942,-0.6176 -3.7126,-0.9105 -6.0038,-0.5065 z m -2.1532,25.9661 c 0.2039,-0.07 0.351,-0.077 0.4335,0 0.618,0.5118 2.6738,1.8483 4.5678,2.9715 3.7426,2.2207 41.5803,37.2227 64.2989,59.48 13.6254,13.3487 14.013,14.0177 10.2678,17.6861 -2.14,2.0985 -7.8082,8.3793 -12.5973,13.958 -4.7887,5.58 -5.6953,6.5976 -6.9327,6.445 -1.2371,-0.1539 -11.6921,-8.6373 -23.2346,-18.8536 -11.5426,-10.2166 -27.3727,-22.9803 -35.1777,-28.3651 -7.8053,-5.3847 -17.3639,-13.2355 -21.2416,-17.4482 -6.2042,-6.7401 -6.6434,-8.2512 -3.6558,-12.5949 4.5624,-6.6337 20.2299,-22.2584 23.272,-23.2765 z m -40.3988,47.2225 6.0678,4.2771 c 3.3373,2.3524 6.3481,4.9066 12.8126,8.8637 6.4643,3.9553 3.8339,3.1364 12.3,9.2684 8.4661,6.1323 17.7181,12.3283 28.4843,23.61 10.7665,11.2814 17.4928,13.5791 21.7196,22.1184 2.5071,5.0649 2.2297,5.583 -8.8652,16.4367 -25.7209,25.1699 -52.0211,53.8152 -69.0089,75.1626 v 0 c -27.0314,33.9686 -26.3999,34.016 -45.2572,48.3358 -5.5775,4.2346 -7.787,4.5069 -13.4555,1.6573 -5.5248,-2.7764 -6.5281,-4.2268 -11.131,-10.9105 -4.603,-6.6838 -12.6014,-7.6117 -23.0321,-18.2455 -10.4307,-10.6336 -16.2718,-13.3798 -29.6188,-25.954 -8.374,-7.8887 -8.3977,-7.9839 -4.1595,-16.5081 2.3449,-4.7159 6.6228,-8.3451 14.3654,-16.9133 19.2034,-21.252 39.0153,-44.1547 53.9353,-62.3476 6.8572,-8.3612 22.0027,-25.024 33.6554,-37.0289 z m -139.1471,172.1121 4.7598,1.7923 c 2.6185,0.9859 10.8599,8.6227 21.6336,18.2147 v 0 c 10.7727,9.5928 23.9903,22.7314 29.3632,29.2059 l 6.7028,9.1467 -25.4741,9.0248 c -13.0212,4.6829 -25.3775,9.4208 -27.4605,10.53 -2.6176,1.3945 -3.506,-1.0111 -11.0692,-6.6532 l -8.4422,-8.1274 3.215,-29.6637 c 1.2179,-11.2338 5.3602,-23.6241 5.8606,-27.1184 z" style="fill:#000;stroke-width:8.46816"></path>
  </g>
</svg>
