<svg xmlns="http://www.w3.org/2000/svg" xml:space="preserve" id="draw" width="1623.57" height="1671.182" version="1.1" viewBox="0 0 429.57 442.167">
  <g id="layer1" transform="translate(-12033.495 -8027.61)">
    <path id="path1-834-3-8-0-6-7-6-6-4-8-7-4-6-1-5" d="M 12241.185 8027.6135 C 12226.879 8027.3536 12177.446 8040.1183 12157.205 8052.4482 C 12136.344 8065.1563 12110.53 8088.1873 12084.978 8120.628 C 12067.627 8142.6551 12046.01 8189.3804 12038.196 8219.2949 C 12028.12 8257.8611 12031.685 8337.1826 12074.456 8389.8968 C 12099.62 8420.9118 12138.08 8452.4705 12187.951 8463.3813 C 12232.06 8473.0317 12291.141 8471.1253 12318.399 8461.908 C 12345.657 8452.6931 12398.186 8411.8866 12418.004 8383.1799 C 12458.175 8325.0022 12473.517 8267.0638 12455.738 8204.9092 C 12439.812 8149.2329 12410.967 8103.9644 12386.743 8082.4402 C 12351.077 8050.7522 12300.783 8033.3455 12277.787 8030.6707 C 12269.033 8029.6525 12255.493 8027.8721 12241.185 8027.6135 z M 12297.015 8101.5465 C 12297.47 8101.4847 12297.885 8101.5129 12298.255 8101.6421 C 12304.174 8103.7101 12347.556 8134.3625 12372.402 8155.3442 C 12387.305 8167.9283 12387.35 8173.0006 12384.303 8176.2577 C 12382.562 8178.1206 12371.321 8191.5255 12367.551 8196.5025 C 12363.774 8201.4756 12363.065 8202.3898 12361.862 8202.2158 C 12360.659 8202.0411 12349.477 8193.9961 12337.008 8184.3352 C 12324.541 8174.6743 12307.62 8162.5666 12299.408 8157.4289 C 12291.195 8152.2912 12280.958 8144.8483 12276.657 8140.8888 C 12269.777 8134.5531 12269.143 8133.158 12271.371 8129.2631 C 12274.56 8123.6855 12290.198 8102.4729 12297.015 8101.5465 z M 12256.855 8155.0874 C 12258.04 8154.9938 12259.234 8155.3258 12260.457 8156.1959 C 12263.975 8158.4387 12270.213 8163.4576 12275.943 8167.653 C 12282.099 8172.3223 12280.049 8170.627 12288.999 8176.467 C 12297.949 8182.3069 12307.657 8188.2266 12319.536 8198.8418 C 12331.417 8209.4566 12338.16 8211.7394 12343.411 8219.6685 C 12346.525 8224.3715 12346.336 8224.8388 12337.307 8234.4748 C 12316.376 8256.821 12305.706 8273.5265 12290.377 8291.9039 C 12279.895 8304.5508 12268.293 8321.2151 12252.357 8333.8145 C 12247.644 8337.5408 12245.575 8337.7305 12239.762 8334.9695 C 12234.099 8332.2805 12230.684 8328.8849 12224.59 8323.2689 C 12220.459 8319.4595 12212.282 8315.7198 12200.814 8305.7066 C 12189.348 8295.6941 12185.587 8294.6836 12171.061 8282.8166 C 12161.948 8275.3713 12161.912 8275.2841 12164.734 8267.5958 C 12166.295 8263.342 12169.857 8260.1355 12176.023 8252.5063 C 12191.297 8233.5711 12202.954 8219.3652 12214.582 8203.115 C 12219.925 8195.6464 12231.284 8181.8079 12240.679 8171.1335 C 12246.788 8163.8915 12251.722 8155.4931 12256.855 8155.0874 z M 12148.895 8298.8177 L 12153.69 8300.5855 C 12156.327 8301.5588 12170.69 8313.2539 12182.335 8322.3232 C 12193.979 8331.3921 12211.373 8341.3309 12217.422 8347.4012 L 12228.761 8355.9372 C 12197.042 8370.0194 12176.576 8379.8474 12172.714 8381.6415 C 12162.495 8386.2431 12150.676 8389.2041 12144.5 8390.2601 C 12136.727 8391.0711 12139.972 8375.3686 12140.689 8368.5488 C 12143.096 8341.8333 12145.744 8325.4802 12148.895 8298.8177 z " style="fill:#000;stroke-width:14.6616"></path>
  </g>
</svg>
