<?xml version="1.0" encoding="UTF-8"?>
<svg id="draw" xmlns="http://www.w3.org/2000/svg" version="1.1" viewBox="0 0 1623.6 1671.2">
  <!-- Generator: Adobe Illustrator 30.0.0, SVG Export Plug-In . SVG Version: 2.1.1 Build 123)  -->
  <g id="layer1">
    <path id="path1-834-3-8-0-6-7-6-6-4-8-7-4-6-1-5" d="M785,0c-54.1-1-240.9,47.3-317.4,93.9-78.8,48-176.4,135.1-273,257.7-65.6,83.3-147.3,259.9-176.8,372.9-38.1,145.8-24.6,445.6,137,644.8,95.1,117.2,240.5,236.5,429,277.7,166.7,36.5,390,29.3,493-5.6,103-34.8,301.6-189.1,376.5-297.6,151.8-219.9,209.8-438.9,142.6-673.8-60.2-210.4-169.2-381.5-260.8-462.9C1200.3,87.5,1010.2,21.7,923.3,11.6,890.2,7.7,839,1,785,0Z"/>
  </g>
</svg>