<svg xmlns="http://www.w3.org/2000/svg" enable-background="new 0 0 100 100" viewBox="0 0 100 100" id="paint-brush-alt">
  <path d="M92.3,79.6c-10.9,2.6-11-16.1-22-13.4c-0.6,0.2-1.2,0.3-1.8,0.6c-1.8-1.9-3.6-3.7-4.9-5.2C51.8,47.7,39.9,33.9,27.8,20.4  c-4.1-4.5-8.2-9.2-12.6-13.4c-2-1.9-5.8-4.1-8.6-2.6c-4.9,2.6-1,7.2,0.8,10.7c10.8,21.1,25.3,40.3,42.3,56.7  c0.1,0.2,0.2,0.4,0.4,0.6c2.7,2.9,5.8,5.3,9.4,6.9c0,1.3,0.1,2.7,0.5,4.1c1.6,6.4,7.3,11.6,13.9,12.3c7.9,0.8,14.9-3.4,18.9-10  c0.3-0.4,0.4-0.8,0.4-1.2c0.2,0,0.4-0.1,0.6-0.1C96.8,83.7,95.5,78.8,92.3,79.6z M44.6,59.6C30.9,44.7,19.3,27.9,10.2,9.8  c3.6,2.7,12,11.9,12.6,12.6c6.6,7.2,13,14.6,19.4,22c2.6,3,5.2,6,7.7,9C47.5,54.6,45.9,57,44.6,59.6z M60.4,74.5  c-0.6-0.3-1.3-0.7-1.9-1.1c-0.1-0.1-0.2-0.2-0.3-0.3c-3.4-3.1-6.7-6.3-9.9-9.7c1.1-2.5,2.3-5.4,5.2-6c2.2,2.6,4.4,5.1,6.6,7.7  c1.2,1.5,2.5,2.9,3.7,4.4C62.3,70.9,61.1,72.6,60.4,74.5z M73.3,90.7c-6.2-1.2-10.8-9-8.2-14.9c1.5-3.3,7.5-7.1,10.2-2.8  c1.5,2.4,3.1,4.6,5,6.7c2,2.2,4.6,3.9,7.3,4.6C84.4,89,79.1,91.8,73.3,90.7z"></path>
</svg>
