<?xml version="1.0" encoding="UTF-8"?>
<svg id="Layer_1" data-name="Layer 1" xmlns="http://www.w3.org/2000/svg" viewBox="0 0 450.07 168.72">
  <path d="M13.9,56.32c.61-.47,1.44-.55,2.15-.28,4.58,1.75,8.74,3.32,12.87,4.93,6.26,2.45,12.83,2.68,19.37,2,4.14-.43,8.23-1.69,11.33-4.72,3.48-3.4,2.76-8.55-1.48-10.93-2.65-1.48-5.55-2.3-8.68-2.26-2.32.03-4.64.09-6.96-.1-3.61-.3-7.21-.74-10.8-1.18-2.46-.3-4.97-.5-7.34-1.15-5.49-1.51-10.4-3.85-13.89-8.57-4.87-6.58-2.52-15.49,1.76-20.49,5.99-6.98,13.91-9.42,22.8-10.16,2.86-.23,5.74-.65,8.6-.57,8.55.23,16.86,1.89,24.92,4.59,4.2,1.4,4.56,3.39,2.7,8.27-.18.46-.39.91-.66,1.33-2.15,3.38-3.56,3.43-6.38,2.43-4.03-1.43-8.19-2.65-12.41-3.42-7.62-1.4-15.17-.75-22.34,2.24-2.56,1.07-4.88,2.66-4.67,5.87.22,3.23,2.15,5.38,5.18,6.46,4.32,1.54,8.89,2.02,13.46,2.23,2.63.12,5.27-.07,7.9.03,5.85.23,11.41,1.59,16.47,4.41,6.48,3.61,9.85,10.78,8.92,17.59-.42,3.06-.77,6.28-3.25,8.65-1.38,1.32-2.88,2.51-4.39,3.7-.7.55-1.73.8-2.27,1.44-2.66,3.2-6.56,3.94-10.31,5.02-4.29,1.24-8.76,1.7-13.22,1.49-4.57-.22-9.15.42-13.71-.68-6.49-1.56-12.96-3.09-18.81-6.32-.9-.5-1.93-.95-2.55-1.69-.48-.57-.78-1.71-.51-2.35,1.35-3.15,3.47-5.75,6.18-7.82h0ZM109.23,46.54c0-7.11,0-14.23,0-21.34,0-.9.02-1.82-.06-2.72-.23-2.7-1.16-3.64-3.89-3.9-1.04-.1-2.1-.07-3.16-.08-5.26-.03-10.53,0-15.79-.09-1.28-.02-2.63-.2-3.8-.67-.7-.28-1.59-1.23-1.6-1.9-.03-3.08-.03-6.2.42-9.24.41-2.76.79-2.87,3.67-2.9,4.6-.05,9.21-.04,13.82-.03,15.79.03,31.58.07,47.37.11.66,0,1.32.05,1.97,0,3.86-.27,5.5,1.29,5.34,5.29-.08,1.94.06,3.88,0,5.82-.07,2.09-.62,2.79-2.64,3.26-1,.24-2.08.21-3.12.22-5.26.04-10.53.06-15.79.09-.92,0-1.86-.04-2.75.12-2.69.48-4.11,2.07-4.17,4.78-.06,2.59.12,5.18.02,7.76-.12,3.08-.54,6.15-.59,9.23-.04,2.17.44,4.34.47,6.52.09,7.76.08,15.52.11,23.28,0,.39,0,.78-.05,1.16-.26,2.03-1.18,2.95-3.33,3.02-2.63.08-5.26.08-7.89,0-3.3-.09-4.44-1.18-4.47-4.53-.07-7.76-.02-15.52-.02-23.28-.02,0-.04,0-.06,0h0ZM228.48,29.76c0,5.71-.07,11.43.02,17.14.1,6.68-2.2,12.63-5.58,18.3-1.3,2.18-3.52,3.37-5.63,4.62-6.06,3.59-12.72,5.01-19.79,5.37-7.7.4-14.76-1.7-21.76-4.25-1.68-.61-3.31-1.64-4.61-2.84-5.57-5.13-8.93-11.29-10.02-18.8-.54-3.73.08-7.27.08-10.9,0-9.78.03-19.55.06-29.33,0-1.01-.14-2.1.18-3.02.24-.7,1.06-1.65,1.71-1.72,3.64-.39,7.3-.57,10.96-.77,1.2-.07,2.07.56,2.31,1.68.34,1.59.7,3.22.72,4.83.07,10.41,0,20.82.08,31.23.03,3.41.47,6.81,2.29,9.84,3.29,5.5,8.54,8.07,14.85,8.69,2.71.27,5.45.31,8.19-.58,2.52-.82,4.53-2.22,5.86-4.26,2.19-3.33,3.67-6.91,3.62-11.04-.15-10.67-.06-21.33-.1-32-.03-6.47,1.44-7.67,8.08-7.7.66,0,1.32.05,1.97-.01,4.43-.43,6.87,2.33,6.52,6.1-.14,1.51-.05,3.04-.05,4.57,0,4.95,0,9.9,0,14.86h.07ZM243.72,6.69c.17-1.41,1.22-2.53,2.6-2.85.67-.15,1.32-.27,1.98-.27,12.9-.04,25.81-.06,38.71.09,3.11.04,6.25.56,9.3,1.21,8.06,1.74,13.65,6.97,18.16,13.49,4.28,6.2,6.35,13.11,6.09,20.66-.27,7.82-1.79,15.31-6.3,21.89-1.31,1.92-2.94,3.78-4.82,5.12-3.07,2.2-6.35,4.2-9.76,5.83-3.9,1.87-7.62,2.55-12.13,2.55-3.71,0-6.95-.37-10.74-.22-1.33.05-3.67,0-5.02.04-6.48.18-12.82.18-19.47-.12-7.35-.33-8.55-.52-8.52-4.66.11-14.44.08-28.88,0-43.31-.03-4.7-.49-9.4-.53-14.09-.02-1.75.21-3.5.44-5.36h0ZM275.92,61.27c7.06.03,12.13-.92,16.63-2.6,2.96-1.1,5.87-2.33,8-4.82,3.48-4.08,4.94-9.06,4.79-14.15-.16-5.61-1.81-11.05-5.31-15.72-2.53-3.39-5.64-5.81-9.98-6.29-2.86-.31-5.73-.56-8.59-.83-2.08-.2-4.16-.58-6.24-.55-2.34.03-4.69.36-7.02.67-1.68.23-3.37.51-4.98,1.01-1.99.62-3.47,1.84-3.72,4.11-.13,1.16-.42,2.31-.43,3.47-.06,8.53-.06,17.07-.08,25.6,0,1.05-.04,2.1.03,3.15.24,3.58,2.37,5.71,5.94,6,3.65.3,7.3.62,10.96.94h0ZM333.29,39.14c0-9.7,0-19.39,0-29.09,0-1.05-.03-2.1.06-3.14.18-2.05,1.16-3.18,3.18-3.25,3.41-.13,6.84-.12,10.25-.02,1.78.05,2.24.64,2.4,2.45.09,1.04.04,2.09.04,3.14,0,16.38-.06,32.76.01,49.14.02,3.9.56,7.8.68,11.71.11,3.58-.72,4.3-4.39,4.35-2.37.03-4.73.04-7.1,0-4.3-.07-5.08-.84-5.09-5.01-.01-10.09,0-20.18,0-30.27h-.05ZM401.74,75.07c-6.8.69-13.27-.87-19.7-2.83-2.33-.71-4.34-1.78-6-3.62-.88-.97-2.01-1.69-2.99-2.56-.89-.79-1.84-1.54-2.59-2.46-4.01-4.94-7.11-10.67-8.4-16.93-.65-3.14-.83-6.37-.58-9.57.26-3.37.58-7.17,1.48-10.44.66-2.4,1.95-4.56,3.42-6.55,3.5-4.69,7.05-8.97,12.37-11.69,3.55-1.82,7.32-3.59,11.26-4.34,9.73-1.86,21.3-1.76,30.62,1.94,3.47,1.38,6.31,3.76,9.4,5.75,2.38,1.53,4.29,3.66,5.67,6.13,1.12,2.01,1.76,4.23,2.81,6.27,1.08,2.1,2.26,3.95,2.89,6.28,1.77,6.55,1.46,14.34-1.55,20.42-1.39,2.8-2.39,5.98-3.98,8.62-1.68,2.79-3.75,5.18-6.22,7.32-7.39,6.4-15.86,8.37-25.14,8.28-.93-.01-1.85,0-2.77,0h0ZM401.88,17.2c-3.53.37-6.85.22-10.19,1.69-2.95,1.3-5.13,3.68-7.31,5.97-2.27,2.4-4.13,4.33-5.14,7.58-1.94,6.3-1.77,12.6,1.62,18.12,4.73,7.73,12.01,11.53,21.06,11.72,3.25.07,6.14-1.26,9.14-2.08,4.38-1.19,7.64-4.09,9.62-8.23,1.05-2.19,1.77-4.48,2.77-6.68,1.19-2.62,2.07-5.48,1.69-8.39-.37-2.82-1.7-5.52-3.04-8-1.32-2.45-3.19-4.59-5.32-6.37-4.06-3.39-9.53-5.89-14.91-5.33h0ZM13.82,145.63c.61-.5,1.43-.59,2.14-.3,4.55,1.87,8.67,3.55,12.77,5.28,6.21,2.62,12.74,2.86,19.23,2.14,4.11-.46,8.17-1.81,11.25-5.05,3.45-3.64,2.74-9.16-1.47-11.7-2.63-1.59-5.51-2.46-8.62-2.42-2.3.03-4.61.09-6.91-.11-3.58-.32-7.15-.79-10.72-1.26-2.44-.32-4.94-.53-7.28-1.23-5.45-1.62-10.32-4.12-13.79-9.17-4.83-7.04-2.5-16.59,1.75-21.93,5.95-7.47,13.81-10.09,22.63-10.87,2.84-.25,5.7-.69,8.54-.61,8.49.25,16.74,2.03,24.74,4.91,4.17,1.5,4.53,3.62,2.68,8.85-.17.49-.39.98-.65,1.42-2.13,3.62-3.54,3.67-6.33,2.6-4-1.53-8.13-2.84-12.31-3.67-7.57-1.5-15.06-.8-22.17,2.4-2.54,1.15-4.85,2.85-4.63,6.28.22,3.46,2.14,5.76,5.14,6.92,4.29,1.65,8.82,2.17,13.36,2.39,2.61.13,5.23-.08,7.84.04,5.8.25,11.32,1.71,16.35,4.73,6.44,3.86,9.77,11.54,8.86,18.83-.41,3.28-.76,6.72-3.22,9.26-1.37,1.41-2.86,2.69-4.35,3.96-.7.59-1.72.85-2.26,1.55-2.64,3.42-6.51,4.22-10.24,5.38-4.26,1.33-8.7,1.82-13.12,1.59-4.53-.23-9.08.44-13.61-.73-6.44-1.67-12.87-3.31-18.68-6.77-.9-.54-1.92-1.02-2.53-1.81-.47-.61-.78-1.84-.51-2.51,1.34-3.37,3.45-6.15,6.13-8.37h0ZM156.49,164.83c-3.4.24-6.92.26-10.16.07-.8-.05-1.59.03-2.39.09-2.23.16-3.22-2.33-4.03-4.39-.45-1.13-1.01-2.22-1.43-3.36-1-2.7-2.93-4.2-5.58-4.48-3.88-.4-7.78-.78-11.67-.75-5.85.04-11.7.4-17.56.69-3.58.17-6.46,1.83-7.41,5.55-1.64,6.42-6.29,7.09-11.96,6.64-1.18-.09-2.36-.04-3.54.06-2.02.17-3.68-.37-5.08-2.02.31-.84.53-1.62.88-2.33,2.52-5.24,4.97-10.51,7.63-15.67,5.28-10.22,9.31-21.03,13.83-31.6,3.04-7.1,6.09-14.19,9.05-21.33.74-1.8,2.1-2.48,3.67-2.54,4.44-.17,8.89-.16,13.33-.17,2.33,0,3.43,1.75,4.29,3.64,1.8,3.94,3.57,7.9,5.25,11.9,2.26,5.37,4.31,10.83,6.63,16.16,5.36,12.3,10.82,24.55,16.28,36.8.6,1.34,1.26,3.72,1.23,5.6-.01.76-.57,1.39-1.28,1.44ZM117.72,142.83s4.46.16,6.66-.09c4.4-.49,6.15-4,4.31-8.16-2.3-5.2-4.51-10.43-6.8-15.64-.38-.86-.88-1.7-1.47-2.4-1.82-2.17-3.5-2.19-5.67-.1-.55.53-.86,1.36-1.18,2.11-1.38,3.23-2.73,6.49-4.08,9.74-1.09,2.62-2.26,5.21-3.22,7.89-.79,2.2-.24,4.15,1.58,5.28,1.18.73,2.63,1.17,4.01,1.33,1.94.22,3.91.06,5.87.06h0ZM174.34,135.16c0-7.62,0-15.23,0-22.85,0-.97.02-1.94-.06-2.91-.23-2.9-1.15-3.9-3.86-4.18-1.04-.11-2.09-.08-3.13-.08-5.22-.03-10.45,0-15.67-.1-1.27-.02-2.61-.22-3.77-.71-.7-.3-1.58-1.32-1.59-2.03-.03-3.3-.03-6.64.42-9.89.4-2.96.78-3.07,3.64-3.11,4.57-.06,9.14-.05,13.71-.04,15.67.03,31.34.08,47.02.12.65,0,1.31.05,1.96,0,3.84-.28,5.46,1.38,5.3,5.66-.08,2.07.06,4.15,0,6.23-.07,2.23-.62,2.98-2.62,3.49-.99.25-2.06.23-3.1.24-5.22.05-10.45.06-15.67.1-.91,0-1.85-.05-2.73.13-2.67.51-4.08,2.22-4.14,5.11-.06,2.77.12,5.54.02,8.31-.12,3.3-.53,6.59-.59,9.88-.04,2.32.44,4.65.46,6.98.09,8.31.08,16.61.11,24.92,0,.42,0,.83-.05,1.24-.26,2.18-1.17,3.16-3.3,3.23-2.61.09-5.22.09-7.84,0-3.27-.1-4.4-1.27-4.44-4.85-.07-8.31-.02-16.61-.02-24.92-.02,0-.04,0-.06,0h0ZM220.24,92.67c-.43-.5-.51-1.31-.08-1.82.51-.62,1.24-.71,2-.7,4.18.04,8.36.05,12.54.17,1.8.05,3.21,1.07,4.31,2.49,2.7,3.46,5.28,7.02,8.07,10.4,2.29,2.77,4.81,5.33,7.23,7.98.94,1.03,2,1.21,3.16.44,1.41-.94,3.06-1.66,4.18-2.9,4.54-5.02,8.99-10.14,13.34-15.34,2.17-2.6,4.49-4.42,8.03-4.07,2.07.2,4.18-.03,6.26.1.37.03.74.15,1.15.33.8.35,1.06,1.44.54,2.18-1.01,1.44-1.91,2.73-2.89,3.95-4.78,5.89-9.62,11.72-14.42,17.59-2.69,3.29-5.41,6.56-7.99,9.96-1.47,1.93-2.27,4.16-2.2,6.76.14,5.83.02,11.66.15,17.48.1,4.31.52,11.09.71,15.4.11,2.6-.26,1.65-3.96,1.97-1.03.09-2.06.02-3.08-.07-1.52-.13-3.03.05-4.54.01-.85-.02-1.71-.16-2.56-.07-.43.05-.87.08-1.31.09-.4,0-.9,0-1.11-.43-.2-.41-.15-.98-.13-1.42.02-.99.09-1.99.13-2.98.32-8.67.06-17.35-.03-26.02-.03-2.41-.07-4.99-.91-7.16-.94-2.43-2.63-4.62-4.26-6.69-5.41-6.91-10.93-13.73-16.43-20.58-1.33-1.66-2.72-3.26-4.09-4.89-.61-.73-1.23-1.46-1.81-2.13h0ZM359.41,164.83c-3.4.24-6.92.26-10.16.07-.8-.05-1.59.03-2.39.09-2.23.16-3.22-2.33-4.03-4.39-.45-1.13-1.01-2.22-1.43-3.36-1-2.7-2.93-4.2-5.58-4.48-3.88-.4-7.78-.78-11.67-.75-5.85.04-11.7.4-17.56.69-3.58.17-6.46,1.83-7.41,5.55-1.64,6.42-6.29,7.09-11.96,6.64-1.18-.09-2.36-.04-3.54.06-2.02.17-3.68-.37-5.08-2.02.31-.84.53-1.62.88-2.33,2.52-5.24,4.97-10.51,7.63-15.67,5.28-10.22,9.31-21.03,13.83-31.6,3.04-7.1,6.09-14.19,9.05-21.33.74-1.8,2.11-2.48,3.67-2.54,4.44-.17,8.89-.16,13.33-.17,2.33,0,3.43,1.75,4.29,3.64,1.8,3.94,3.57,7.9,5.25,11.9,2.26,5.37,4.31,10.83,6.63,16.16,5.36,12.3,10.82,24.55,16.28,36.8.6,1.34,1.26,3.72,1.23,5.6-.01.76-.57,1.39-1.28,1.44ZM320.64,142.83s4.46.16,6.66-.09c4.4-.49,6.15-4,4.31-8.16-2.3-5.2-4.51-10.43-6.8-15.64-.38-.86-.88-1.7-1.47-2.4-1.82-2.17-3.5-2.19-5.67-.1-.55.53-.86,1.36-1.18,2.11-1.38,3.23-2.73,6.49-4.08,9.74-1.09,2.62-2.26,5.21-3.22,7.89-.79,2.2-.24,4.15,1.58,5.28,1.18.73,2.63,1.17,4.01,1.33,1.94.22,3.91.06,5.87.06h0ZM383.91,120.54c-.56-.19-1.16.07-1.47.61-1.41,2.51-1.38,5.32-1.44,7.96-.09,4.32.39,8.64.47,12.97.13,6.6.19,13.2.18,19.8,0,2.44-.56,3.05-2.73,3.11-3.39.09-6.79.09-10.19.02-2.06-.04-2.76-.65-3.27-2.73-.18-.72-.25-1.46-.25-2.21-.04-21.32-.07-42.65-.08-63.97,0-6.11.77-6.95,6.63-6.94,9.12.02,7.48-.66,13.57,6.05,9.11,10.05,18.21,20.1,27.34,30.12,2.19,2.4,4.55,4.6,7.46,6,2.52,1.22,3.56.76,4.28-2.09.3-1.19.29-2.49.3-3.75.05-9.41.07-18.81.11-28.22,0-.84-.02-1.69.02-2.53.17-3.85,1.46-5.36,4.98-5.54,2.35-.12,4.71-.12,7.05-.02,2.33.1,4.19,2.14,4.26,4.65.09,3.51.03,7.01.03,10.53,0,6.6.07,13.2-.04,19.8-.1,6.01-.55,12.01-.54,18.02.01,5.31.46,10.61.71,15.92.05.98.05,1.96.04,2.95-.04,3.55-.34,3.91-3.52,3.97-2.87.05-5.75-.06-8.62.05-2.11.08-3.79-.7-5.25-2.27-11.34-12.23-22.73-24.41-34.03-36.7-1.64-1.78-2.91-3.95-5.04-5.15-.3-.17-.62-.28-.95-.4h0Z"/>
</svg>